# xmcd
#
# Track frame offsets: 
#        150
#        20873
#        42382
#        58701
#        80853
#        95789
#        116640
#        131841
#        146420
#        159840
#        171755
#        189263
#        203645
#        214878
#        234600
#        251065
#        267160
#        282072
#        295485
#        310597
#
# Disc length: 4344 seconds
#
# Revision: 0
# Processed by: cddbd v1.5.2PL0 Copyright (c) Steve Scherf et al.
# Submitted via: ExactAudioCopy v0.99pb3
#
DISCID=3010f614
DTITLE=Δημήτρης Μητροπάνος - Η Ζωή Μου Ένα Τραγούδι [CD 2)
DYEAR=1900
DGENRE=
TTITLE0=Ρόζα
TTITLE1=Στης Ψυχής Το Παρακάτω
TTITLE2=Σαββατόβραδο
TTITLE3=Πατησίων και Παραμυθιού Γωνία
TTITLE4=Τα Λαδάδικα
TTITLE5=Χαμένα Σαββατόβραδα
TTITLE6=Τα Τελωνεία
TTITLE7=Το Ζειμπέκικο Του Αρχαγγέλου
TTITLE8=Πες Μου Το Παράπονό Σου
TTITLE9=Φως
TTITLE10=Απόψε Χάσαμε Κι Οι Δυο
TTITLE11=Φύγε Καρδιά Μου
TTITLE12=Πάρε Αποφάσεις
TTITLE13=Εγωισμός
TTITLE14=Πάντα Επιστρέφεις
TTITLE15=Στο Δρόμο Που Μαχαίρωσαν Τη Στέλλα
TTITLE16=Αγάπη Δίκαιη
TTITLE17=Σμύρνη
TTITLE18=Σαν Πλανόδιο Τσίρκο
TTITLE19=Τα Κόκκινα Τα Μπλουζ
EXTD=
EXTT0=
EXTT1=
EXTT2=
EXTT3=
EXTT4=
EXTT5=
EXTT6=
EXTT7=
EXTT8=
EXTT9=
EXTT10=
EXTT11=
EXTT12=
EXTT13=
EXTT14=
EXTT15=
EXTT16=
EXTT17=
EXTT18=
EXTT19=
PLAYORDER=
